<svg xmlns="http://www.w3.org/2000/svg" fill="currentColor" height="24" viewBox="0 -960 960 960" width="24"><path d="M440-760v-160h80v160h-80Zm266 110-56-56 113-114 57 57-114 113Zm54 210v-80h160v80H760Zm3 300L650-254l56-56 114 113-57 57ZM440-40v-160h80v160h-80ZM197-140l-57-57 114-113 56 56-113 114Zm-157-300v-80h160v80H40Zm214-210L140-763l57-57 113 114-56 56Zm226 370q-83 0-141.5-58.5T280-480q0-83 58.5-141.5T480-680q83 0 141.5 58.5T680-480q0 83-58.5 141.5T480-280Zm0-80q50 0 85-35t35-85q0-50-35-85t-85-35q-50 0-85 35t-35 85q0 50 35 85t85 35Zm0-120Z"/></svg>
