<svg xmlns="http://www.w3.org/2000/svg"
     xmlns:xlink="http://www.w3.org/1999/xlink"
     width="650"
     height="300"
     zoomAndPan="magnify"
     viewBox="200 165 620 240"
     preserveAspectRatio="xMidYMid meet"
     version="1.0">
    <defs>
        <g />
        <clipPath id="9c7357f29e">
            <path
                d="M 494.066406 154.753906 L 760.183594 154.753906 L 760.183594 420.875 L 494.066406 420.875 Z M 494.066406 154.753906 "
                clip-rule="nonzero" />
        </clipPath>
        <clipPath id="a7ea562705">
            <rect x="0" width="434" y="0" height="97" />
        </clipPath>
        <clipPath id="a9983976e3">
            <rect x="0" width="390" y="0" height="96" />
        </clipPath>
        <clipPath id="8d97c656df">
            <path d="M 0.488281 33 L 4 33 L 4 70 L 0.488281 70 Z M 0.488281 33 " clip-rule="nonzero" />
        </clipPath>
        <clipPath id="05c7121652">
            <path d="M 23 0.402344 L 27 0.402344 L 27 106 L 23 106 Z M 23 0.402344 "
                clip-rule="nonzero" />
        </clipPath>
        <clipPath id="576f89bdb8">
            <path d="M 93 23 L 96.679688 23 L 96.679688 78 L 93 78 Z M 93 23 " clip-rule="nonzero" />
        </clipPath>
        <clipPath id="8250823dd5">
            <rect x="0" width="97" y="0" height="107" />
        </clipPath>
    </defs>
    <g clip-path="url(#9c7357f29e)">
        <path fill="#8fbb99"
            d="M 760.546875 287.996094 C 760.546875 290.175781 760.496094 292.355469 760.386719 294.53125 C 760.28125 296.710938 760.121094 298.886719 759.90625 301.054688 C 759.691406 303.226562 759.425781 305.390625 759.105469 307.546875 C 758.785156 309.703125 758.414062 311.851562 757.988281 313.988281 C 757.5625 316.128906 757.085938 318.253906 756.554688 320.371094 C 756.027344 322.484375 755.445312 324.585938 754.8125 326.671875 C 754.179688 328.761719 753.496094 330.828125 752.757812 332.882812 C 752.023438 334.9375 751.242188 336.96875 750.40625 338.984375 C 749.570312 341 748.6875 342.992188 747.757812 344.964844 C 746.824219 346.933594 745.84375 348.882812 744.816406 350.804688 C 743.789062 352.726562 742.714844 354.625 741.59375 356.496094 C 740.472656 358.367188 739.304688 360.207031 738.09375 362.019531 C 736.882812 363.832031 735.625 365.617188 734.328125 367.367188 C 733.027344 369.117188 731.6875 370.835938 730.304688 372.523438 C 728.921875 374.207031 727.496094 375.859375 726.03125 377.476562 C 724.566406 379.089844 723.066406 380.667969 721.523438 382.210938 C 719.980469 383.753906 718.402344 385.257812 716.785156 386.722656 C 715.171875 388.183594 713.519531 389.609375 711.835938 390.992188 C 710.148438 392.375 708.429688 393.71875 706.679688 395.015625 C 704.925781 396.316406 703.144531 397.570312 701.332031 398.78125 C 699.519531 399.992188 697.675781 401.160156 695.808594 402.28125 C 693.9375 403.402344 692.039062 404.476562 690.117188 405.503906 C 688.195312 406.53125 686.246094 407.511719 684.273438 408.445312 C 682.304688 409.375 680.3125 410.261719 678.296875 411.09375 C 676.28125 411.929688 674.246094 412.714844 672.195312 413.449219 C 670.140625 414.183594 668.070312 414.867188 665.984375 415.5 C 663.898438 416.132812 661.796875 416.714844 659.683594 417.242188 C 657.566406 417.773438 655.441406 418.25 653.300781 418.675781 C 651.164062 419.101562 649.015625 419.476562 646.859375 419.792969 C 644.699219 420.113281 642.535156 420.382812 640.367188 420.59375 C 638.195312 420.808594 636.023438 420.96875 633.84375 421.078125 C 631.667969 421.183594 629.488281 421.238281 627.308594 421.238281 C 625.125 421.238281 622.945312 421.183594 620.769531 421.078125 C 618.589844 420.96875 616.417969 420.808594 614.246094 420.59375 C 612.078125 420.382812 609.914062 420.113281 607.757812 419.792969 C 605.597656 419.476562 603.453125 419.101562 601.3125 418.675781 C 599.175781 418.25 597.046875 417.773438 594.933594 417.242188 C 592.816406 416.714844 590.714844 416.132812 588.628906 415.5 C 586.542969 414.867188 584.472656 414.183594 582.417969 413.449219 C 580.367188 412.714844 578.332031 411.929688 576.316406 411.09375 C 574.304688 410.261719 572.308594 409.375 570.339844 408.445312 C 568.367188 407.511719 566.421875 406.53125 564.496094 405.503906 C 562.574219 404.476562 560.675781 403.402344 558.808594 402.28125 C 556.9375 401.160156 555.09375 399.992188 553.28125 398.78125 C 551.46875 397.570312 549.6875 396.316406 547.933594 395.015625 C 546.183594 393.71875 544.464844 392.375 542.777344 390.992188 C 541.09375 389.609375 539.441406 388.183594 537.828125 386.722656 C 536.210938 385.257812 534.632812 383.753906 533.089844 382.210938 C 531.550781 380.667969 530.046875 379.089844 528.582031 377.476562 C 527.117188 375.859375 525.691406 374.207031 524.308594 372.523438 C 522.925781 370.835938 521.585938 369.117188 520.285156 367.367188 C 518.988281 365.617188 517.730469 363.832031 516.519531 362.019531 C 515.308594 360.207031 514.144531 358.367188 513.023438 356.496094 C 511.902344 354.625 510.828125 352.726562 509.796875 350.804688 C 508.769531 348.882812 507.789062 346.933594 506.859375 344.964844 C 505.925781 342.992188 505.042969 341 504.207031 338.984375 C 503.375 336.96875 502.589844 334.9375 501.855469 332.882812 C 501.121094 330.828125 500.4375 328.761719 499.800781 326.671875 C 499.167969 324.585938 498.589844 322.484375 498.058594 320.371094 C 497.527344 318.253906 497.050781 316.128906 496.625 313.988281 C 496.199219 311.851562 495.828125 309.703125 495.507812 307.546875 C 495.1875 305.390625 494.921875 303.226562 494.707031 301.054688 C 494.492188 298.886719 494.332031 296.710938 494.226562 294.53125 C 494.117188 292.355469 494.066406 290.175781 494.066406 287.996094 C 494.066406 285.816406 494.117188 283.636719 494.226562 281.457031 C 494.332031 279.28125 494.492188 277.105469 494.707031 274.933594 C 494.921875 272.765625 495.1875 270.601562 495.507812 268.445312 C 495.828125 266.289062 496.199219 264.140625 496.625 262 C 497.050781 259.863281 497.527344 257.734375 498.058594 255.621094 C 498.589844 253.503906 499.167969 251.402344 499.800781 249.316406 C 500.4375 247.230469 501.121094 245.160156 501.855469 243.109375 C 502.589844 241.054688 503.375 239.019531 504.207031 237.003906 C 505.042969 234.992188 505.925781 233 506.859375 231.027344 C 507.789062 229.054688 508.769531 227.109375 509.796875 225.183594 C 510.828125 223.261719 511.902344 221.367188 513.023438 219.496094 C 514.144531 217.625 515.308594 215.785156 516.519531 213.96875 C 517.730469 212.15625 518.988281 210.375 520.285156 208.625 C 521.585938 206.871094 522.925781 205.152344 524.308594 203.46875 C 525.691406 201.78125 527.117188 200.132812 528.582031 198.515625 C 530.046875 196.898438 531.550781 195.320312 533.089844 193.777344 C 534.632812 192.238281 536.210938 190.734375 537.828125 189.269531 C 539.441406 187.804688 541.09375 186.382812 542.777344 185 C 544.464844 183.613281 546.183594 182.273438 547.933594 180.972656 C 549.6875 179.675781 551.46875 178.421875 553.28125 177.207031 C 555.09375 175.996094 556.9375 174.832031 558.808594 173.710938 C 560.675781 172.589844 562.574219 171.515625 564.496094 170.488281 C 566.421875 169.457031 568.367188 168.480469 570.339844 167.546875 C 572.308594 166.613281 574.304688 165.730469 576.316406 164.894531 C 578.332031 164.0625 580.367188 163.277344 582.417969 162.542969 C 584.472656 161.808594 586.542969 161.125 588.628906 160.492188 C 590.714844 159.859375 592.816406 159.277344 594.933594 158.746094 C 597.046875 158.21875 599.175781 157.738281 601.3125 157.3125 C 603.453125 156.886719 605.597656 156.515625 607.757812 156.195312 C 609.914062 155.875 612.078125 155.609375 614.246094 155.394531 C 616.417969 155.179688 618.589844 155.019531 620.769531 154.914062 C 622.945312 154.808594 625.125 154.753906 627.308594 154.753906 C 629.488281 154.753906 631.667969 154.808594 633.84375 154.914062 C 636.023438 155.019531 638.195312 155.179688 640.367188 155.394531 C 642.535156 155.609375 644.699219 155.875 646.859375 156.195312 C 649.015625 156.515625 651.164062 156.886719 653.300781 157.3125 C 655.441406 157.738281 657.566406 158.21875 659.683594 158.746094 C 661.796875 159.277344 663.898438 159.859375 665.984375 160.492188 C 668.070312 161.125 670.140625 161.808594 672.195312 162.542969 C 674.246094 163.277344 676.28125 164.0625 678.296875 164.894531 C 680.3125 165.730469 682.304688 166.613281 684.273438 167.546875 C 686.246094 168.480469 688.195312 169.457031 690.117188 170.488281 C 692.039062 171.515625 693.9375 172.589844 695.808594 173.710938 C 697.675781 174.832031 699.519531 175.996094 701.332031 177.207031 C 703.144531 178.421875 704.925781 179.675781 706.679688 180.972656 C 708.429688 182.273438 710.148438 183.613281 711.835938 185 C 713.519531 186.382812 715.171875 187.804688 716.785156 189.269531 C 718.402344 190.734375 719.980469 192.238281 721.523438 193.777344 C 723.066406 195.320312 724.566406 196.898438 726.03125 198.515625 C 727.496094 200.132812 728.921875 201.78125 730.304688 203.46875 C 731.6875 205.152344 733.027344 206.871094 734.328125 208.625 C 735.625 210.375 736.882812 212.15625 738.09375 213.96875 C 739.304688 215.785156 740.472656 217.625 741.59375 219.496094 C 742.714844 221.367188 743.789062 223.261719 744.816406 225.183594 C 745.84375 227.109375 746.824219 229.054688 747.757812 231.027344 C 748.6875 233 749.570312 234.992188 750.40625 237.003906 C 751.242188 239.019531 752.023438 241.054688 752.757812 243.109375 C 753.496094 245.160156 754.179688 247.230469 754.8125 249.316406 C 755.445312 251.402344 756.027344 253.503906 756.554688 255.621094 C 757.085938 257.734375 757.5625 259.863281 757.988281 262 C 758.414062 264.140625 758.785156 266.289062 759.105469 268.445312 C 759.425781 270.601562 759.691406 272.765625 759.90625 274.933594 C 760.121094 277.105469 760.28125 279.28125 760.386719 281.457031 C 760.496094 283.636719 760.546875 285.816406 760.546875 287.996094 Z M 760.546875 287.996094 "
            fill-opacity="1" fill-rule="nonzero" />
    </g>
    <g transform="matrix(1, 0, 0, 1, 199, 216)">
        <g clip-path="url(#a7ea562705)">
            <g fill="#ffffff" fill-opacity="1">
                <g transform="translate(0.657023, 71.240922)">
                    <g>
                        <path
                            d="M 31.28125 -67.359375 L 31.28125 -65.828125 L 21.71875 -65.828125 L 21.71875 -1.53125 L 34.53125 -1.53125 C 37.46875 -1.53125 39.972656 -1.625 42.046875 -1.8125 C 44.117188 -2.007812 45.90625 -2.28125 47.40625 -2.625 C 48.90625 -2.976562 50.132812 -3.425781 51.09375 -3.96875 C 52.050781 -4.507812 52.878906 -5.132812 53.578125 -5.84375 C 55.046875 -7.300781 56.113281 -9.273438 56.78125 -11.765625 C 57.445312 -14.253906 57.78125 -17.664062 57.78125 -22 L 59.3125 -22 L 59.3125 0 L 2.390625 0 L 2.390625 -1.53125 L 11.953125 -1.53125 L 11.953125 -65.828125 L 2.390625 -65.828125 L 2.390625 -67.359375 Z M 31.28125 -67.359375 " />
                    </g>
                </g>
            </g>
            <g fill="#ffffff" fill-opacity="1">
                <g transform="translate(53.842747, 71.240922)">
                    <g>
                        <path
                            d="M 28.796875 -67.359375 L 28.796875 -65.828125 L 20.859375 -65.828125 L 36.828125 -28.796875 L 48.703125 -55.578125 C 49.398438 -57.242188 49.988281 -58.664062 50.46875 -59.84375 C 50.945312 -61.019531 51.1875 -62.148438 51.1875 -63.234375 C 51.1875 -64.960938 49.910156 -65.828125 47.359375 -65.828125 L 43.25 -65.828125 L 43.25 -67.359375 L 62.859375 -67.359375 L 62.859375 -65.828125 L 59.984375 -65.828125 C 58.960938 -65.828125 58.097656 -65.773438 57.390625 -65.671875 C 56.691406 -65.578125 56.070312 -65.304688 55.53125 -64.859375 C 54.988281 -64.421875 54.460938 -63.753906 53.953125 -62.859375 C 53.441406 -61.960938 52.835938 -60.71875 52.140625 -59.125 L 37.3125 -26.21875 L 37.3125 -1.53125 L 47.453125 -1.53125 L 47.453125 0 L 17.40625 0 L 17.40625 -1.53125 L 27.546875 -1.53125 L 27.546875 -24.6875 L 9.65625 -65.828125 L 0.953125 -65.828125 L 0.953125 -67.359375 Z M 28.796875 -67.359375 " />
                    </g>
                </g>
            </g>
            <g fill="#ffffff" fill-opacity="1">
                <g transform="translate(117.647787, 71.240922)">
                    <g>
                        <path
                            d="M 31.375 -67.359375 C 36.738281 -67.359375 41.425781 -66.398438 45.4375 -64.484375 C 49.457031 -62.566406 52.804688 -60.03125 55.484375 -56.875 C 58.171875 -53.71875 60.179688 -50.113281 61.515625 -46.0625 C 62.859375 -42.007812 63.53125 -37.847656 63.53125 -33.578125 C 63.53125 -28.222656 62.710938 -23.472656 61.078125 -19.328125 C 59.453125 -15.179688 57.203125 -11.671875 54.328125 -8.796875 C 51.460938 -5.929688 48.082031 -3.75 44.1875 -2.25 C 40.300781 -0.75 36.0625 0 31.46875 0 L 0.953125 0 L 0.953125 -1.53125 L 10.046875 -1.53125 L 10.046875 -65.828125 L 0.953125 -65.828125 L 0.953125 -67.359375 Z M 28.125 -1.53125 C 35.84375 -1.53125 41.851562 -4.175781 46.15625 -9.46875 C 50.46875 -14.757812 52.625 -22.828125 52.625 -33.671875 C 52.625 -44.773438 50.3125 -52.910156 45.6875 -58.078125 C 41.0625 -63.242188 34.0625 -65.828125 24.6875 -65.828125 L 19.796875 -65.828125 L 19.796875 -1.53125 Z M 28.125 -1.53125 " />
                    </g>
                </g>
            </g>
            <g fill="#ffffff" fill-opacity="1">
                <g transform="translate(186.714109, 71.240922)">
                    <g>
                        <path
                            d="M 39.890625 -63.046875 C 40.972656 -63.046875 41.675781 -63.472656 42 -64.328125 C 42.320312 -65.191406 42.546875 -65.976562 42.671875 -66.6875 L 44.203125 -66.6875 L 44.203125 -46.59375 L 42.671875 -46.59375 C 42.160156 -52.96875 40.195312 -58.019531 36.78125 -61.75 C 33.375 -65.488281 28.800781 -67.359375 23.0625 -67.359375 C 18.976562 -67.359375 15.644531 -66.097656 13.0625 -63.578125 C 10.476562 -61.054688 9.1875 -57.59375 9.1875 -53.1875 C 9.1875 -50.832031 9.503906 -48.9375 10.140625 -47.5 C 10.773438 -46.0625 11.828125 -44.878906 13.296875 -43.953125 C 14.765625 -43.035156 16.742188 -42.289062 19.234375 -41.71875 C 21.722656 -41.144531 24.785156 -40.503906 28.421875 -39.796875 C 31.921875 -39.097656 34.914062 -38.285156 37.40625 -37.359375 C 39.894531 -36.429688 41.9375 -35.21875 43.53125 -33.71875 C 45.125 -32.21875 46.269531 -30.382812 46.96875 -28.21875 C 47.675781 -26.050781 48.03125 -23.4375 48.03125 -20.375 C 48.03125 -13.613281 46.210938 -8.269531 42.578125 -4.34375 C 38.941406 -0.425781 33.867188 1.53125 27.359375 1.53125 C 25.003906 1.53125 22.882812 1.273438 21 0.765625 C 19.113281 0.253906 17.421875 -0.316406 15.921875 -0.953125 C 14.429688 -1.585938 13.125 -2.160156 12 -2.671875 C 10.882812 -3.179688 9.914062 -3.4375 9.09375 -3.4375 C 7.9375 -3.4375 7.25 -2.988281 7.03125 -2.09375 C 6.8125 -1.207031 6.703125 -0.316406 6.703125 0.578125 L 5.171875 0.578125 L 5.171875 -23.625 L 6.703125 -23.625 C 6.703125 -19.925781 7.191406 -16.609375 8.171875 -13.671875 C 9.160156 -10.742188 10.582031 -8.273438 12.4375 -6.265625 C 14.289062 -4.253906 16.488281 -2.707031 19.03125 -1.625 C 21.582031 -0.539062 24.457031 0 27.65625 0 C 29.945312 0 32.0625 -0.347656 34 -1.046875 C 35.945312 -1.753906 37.625 -2.742188 39.03125 -4.015625 C 40.4375 -5.296875 41.519531 -6.828125 42.28125 -8.609375 C 43.050781 -10.398438 43.4375 -12.378906 43.4375 -14.546875 C 43.4375 -17.796875 42.859375 -20.328125 41.703125 -22.140625 C 40.554688 -23.960938 39.054688 -25.367188 37.203125 -26.359375 C 35.359375 -27.347656 33.238281 -28.046875 30.84375 -28.453125 C 28.457031 -28.867188 25.988281 -29.300781 23.4375 -29.75 C 21.457031 -30.070312 19.625 -30.472656 17.9375 -30.953125 C 16.25 -31.429688 14.703125 -32.019531 13.296875 -32.71875 C 10.617188 -34 8.59375 -35.960938 7.21875 -38.609375 C 5.851562 -41.253906 5.171875 -45.03125 5.171875 -49.9375 C 5.171875 -52.675781 5.597656 -55.207031 6.453125 -57.53125 C 7.316406 -59.863281 8.53125 -61.875 10.09375 -63.5625 C 11.65625 -65.257812 13.535156 -66.570312 15.734375 -67.5 C 17.929688 -68.425781 20.375 -68.890625 23.0625 -68.890625 C 25.414062 -68.890625 27.484375 -68.582031 29.265625 -67.96875 C 31.054688 -67.363281 32.601562 -66.691406 33.90625 -65.953125 C 35.21875 -65.222656 36.351562 -64.554688 37.3125 -63.953125 C 38.269531 -63.347656 39.128906 -63.046875 39.890625 -63.046875 Z M 39.890625 -63.046875 " />
                    </g>
                </g>
            </g>
            <g fill="#ffffff" fill-opacity="1">
                <g transform="translate(239.900902, 71.240922)">
                    <g>
                        <path
                            d="M 29.28125 -67.359375 C 37.25 -67.359375 43.382812 -65.796875 47.6875 -62.671875 C 52 -59.546875 54.15625 -54.890625 54.15625 -48.703125 C 54.15625 -45.765625 53.546875 -43.128906 52.328125 -40.796875 C 51.117188 -38.472656 49.429688 -36.515625 47.265625 -34.921875 C 45.097656 -33.328125 42.515625 -32.113281 39.515625 -31.28125 C 36.515625 -30.457031 33.257812 -30.046875 29.75 -30.046875 C 28.21875 -30.046875 26.59375 -30.1875 24.875 -30.46875 C 23.15625 -30.757812 21.816406 -31.160156 20.859375 -31.671875 L 20.859375 -1.53125 L 30.609375 -1.53125 L 30.609375 0 L 1.625 0 L 1.625 -1.53125 L 11.09375 -1.53125 L 11.09375 -65.828125 L 1.625 -65.828125 L 1.625 -67.359375 Z M 20.859375 -33.578125 C 21.617188 -33.066406 22.632812 -32.601562 23.90625 -32.1875 C 25.1875 -31.78125 26.5625 -31.578125 28.03125 -31.578125 C 30.257812 -31.578125 32.332031 -31.910156 34.25 -32.578125 C 36.164062 -33.242188 37.835938 -34.257812 39.265625 -35.625 C 40.703125 -37 41.816406 -38.707031 42.609375 -40.75 C 43.410156 -42.789062 43.8125 -45.15625 43.8125 -47.84375 C 43.8125 -54.21875 42.359375 -58.804688 39.453125 -61.609375 C 36.554688 -64.421875 32.429688 -65.828125 27.078125 -65.828125 L 20.859375 -65.828125 Z M 20.859375 -33.578125 " />
                    </g>
                </g>
            </g>
            <g fill="#ffffff" fill-opacity="1">
                <g transform="translate(298.348975, 71.240922)">
                    <g>
                        <path
                            d="M 64.765625 -33.671875 C 64.765625 -28.890625 63.96875 -24.378906 62.375 -20.140625 C 60.78125 -15.898438 58.613281 -12.164062 55.875 -8.9375 C 53.132812 -5.71875 49.925781 -3.164062 46.25 -1.28125 C 42.582031 0.589844 38.675781 1.53125 34.53125 1.53125 C 30.382812 1.53125 26.476562 0.589844 22.8125 -1.28125 C 19.144531 -3.164062 15.941406 -5.71875 13.203125 -8.9375 C 10.460938 -12.164062 8.296875 -15.898438 6.703125 -20.140625 C 5.109375 -24.378906 4.3125 -28.890625 4.3125 -33.671875 C 4.3125 -38.460938 5.109375 -42.992188 6.703125 -47.265625 C 8.296875 -51.535156 10.460938 -55.265625 13.203125 -58.453125 C 15.941406 -61.640625 19.144531 -64.175781 22.8125 -66.0625 C 26.476562 -67.945312 30.382812 -68.890625 34.53125 -68.890625 C 38.675781 -68.890625 42.582031 -67.945312 46.25 -66.0625 C 49.925781 -64.175781 53.132812 -61.640625 55.875 -58.453125 C 58.613281 -55.265625 60.78125 -51.535156 62.375 -47.265625 C 63.96875 -42.992188 64.765625 -38.460938 64.765625 -33.671875 Z M 34.53125 0 C 40.851562 0 45.65625 -2.835938 48.9375 -8.515625 C 52.21875 -14.191406 53.859375 -22.578125 53.859375 -33.671875 C 53.859375 -44.773438 52.21875 -53.164062 48.9375 -58.84375 C 45.65625 -64.519531 40.820312 -67.359375 34.4375 -67.359375 C 28.445312 -67.359375 23.742188 -64.613281 20.328125 -59.125 C 16.921875 -53.632812 15.21875 -45.148438 15.21875 -33.671875 C 15.21875 -22.578125 16.859375 -14.191406 20.140625 -8.515625 C 23.421875 -2.835938 28.21875 0 34.53125 0 Z M 34.53125 0 " />
                    </g>
                </g>
            </g>
            <g fill="#ffffff" fill-opacity="1">
                <g transform="translate(367.415297, 71.240922)">
                    <g>
                        <path
                            d="M 32.234375 -67.359375 C 39.765625 -67.359375 45.394531 -65.984375 49.125 -63.234375 C 52.851562 -60.492188 54.71875 -56.222656 54.71875 -50.421875 C 54.71875 -46.015625 52.898438 -42.519531 49.265625 -39.9375 C 45.628906 -37.351562 40.625 -35.648438 34.25 -34.828125 L 34.25 -34.640625 C 38.332031 -34.316406 41.535156 -33.691406 43.859375 -32.765625 C 46.191406 -31.835938 48.023438 -30.421875 49.359375 -28.515625 C 50.003906 -27.617188 50.515625 -26.691406 50.890625 -25.734375 C 51.273438 -24.773438 51.625 -23.546875 51.9375 -22.046875 C 52.257812 -20.546875 52.546875 -18.664062 52.796875 -16.40625 C 53.054688 -14.144531 53.378906 -11.257812 53.765625 -7.75 C 53.953125 -5.707031 54.410156 -4.0625 55.140625 -2.8125 C 55.878906 -1.570312 57.113281 -0.953125 58.84375 -0.953125 C 59.726562 -0.953125 60.441406 -1.046875 60.984375 -1.234375 C 61.523438 -1.429688 62.117188 -1.65625 62.765625 -1.90625 L 63.328125 -0.671875 C 62.054688 -0.222656 60.863281 0.09375 59.75 0.28125 C 58.632812 0.476562 57.375 0.578125 55.96875 0.578125 C 54.4375 0.578125 53 0.476562 51.65625 0.28125 C 50.320312 0.09375 49.128906 -0.269531 48.078125 -0.8125 C 47.023438 -1.351562 46.097656 -2.101562 45.296875 -3.0625 C 44.503906 -4.019531 43.882812 -5.296875 43.4375 -6.890625 C 42.925781 -8.484375 42.554688 -10.316406 42.328125 -12.390625 C 42.109375 -14.460938 41.882812 -16.519531 41.65625 -18.5625 C 41.4375 -20.601562 41.179688 -22.5 40.890625 -24.25 C 40.609375 -26.007812 40.179688 -27.429688 39.609375 -28.515625 C 38.910156 -29.785156 38.066406 -30.785156 37.078125 -31.515625 C 36.085938 -32.253906 35.03125 -32.796875 33.90625 -33.140625 C 32.789062 -33.492188 31.660156 -33.703125 30.515625 -33.765625 C 29.367188 -33.835938 28.347656 -33.875 27.453125 -33.875 L 21.71875 -33.875 L 21.71875 -1.53125 L 31.46875 -1.53125 L 31.46875 0 L 2.390625 0 L 2.390625 -1.53125 L 11.953125 -1.53125 L 11.953125 -65.828125 L 2.390625 -65.828125 L 2.390625 -67.359375 Z M 21.71875 -35.40625 L 26.5 -35.40625 C 32.6875 -35.40625 37.210938 -36.613281 40.078125 -39.03125 C 42.953125 -41.457031 44.390625 -45.253906 44.390625 -50.421875 C 44.390625 -53.285156 44.003906 -55.707031 43.234375 -57.6875 C 42.472656 -59.664062 41.390625 -61.257812 39.984375 -62.46875 C 38.585938 -63.6875 36.898438 -64.550781 34.921875 -65.0625 C 32.941406 -65.570312 30.738281 -65.828125 28.3125 -65.828125 L 21.71875 -65.828125 Z M 21.71875 -35.40625 " />
                    </g>
                </g>
            </g>
        </g>
    </g>
    <g transform="matrix(1, 0, 0, 1, 436, 299)">
        <g clip-path="url(#a9983976e3)">
            <g fill="#ffffff" fill-opacity="1">
                <g transform="translate(0.203687, 70.271597)">
                    <g>
                        <path
                            d="M 30.609375 -68.890625 L 31.671875 -68.890625 L 54.921875 -1.53125 L 62.859375 -1.53125 L 62.859375 0 L 34.828125 0 L 34.828125 -1.53125 L 44.203125 -1.53125 L 37.3125 -21.8125 L 16.84375 -21.8125 C 15.5625 -17.925781 14.566406 -14.878906 13.859375 -12.671875 C 13.160156 -10.472656 12.632812 -8.800781 12.28125 -7.65625 C 11.9375 -6.507812 11.71875 -5.710938 11.625 -5.265625 C 11.53125 -4.816406 11.484375 -4.367188 11.484375 -3.921875 C 11.484375 -2.328125 12.984375 -1.53125 15.984375 -1.53125 L 20.671875 -1.53125 L 20.671875 0 L 0.953125 0 L 0.953125 -1.53125 L 4.40625 -1.53125 C 6.1875 -1.53125 7.410156 -2.007812 8.078125 -2.96875 C 8.753906 -3.925781 9.472656 -5.519531 10.234375 -7.75 Z M 26.78125 -52.328125 L 17.40625 -23.34375 L 36.828125 -23.34375 L 26.984375 -52.328125 Z M 26.78125 -52.328125 " />
                    </g>
                </g>
            </g>
            <g fill="#ffffff" fill-opacity="1">
                <g transform="translate(64.008728, 70.271597)">
                    <g>
                        <path
                            d="M 30.609375 -68.890625 L 31.671875 -68.890625 L 54.921875 -1.53125 L 62.859375 -1.53125 L 62.859375 0 L 34.828125 0 L 34.828125 -1.53125 L 44.203125 -1.53125 L 37.3125 -21.8125 L 16.84375 -21.8125 C 15.5625 -17.925781 14.566406 -14.878906 13.859375 -12.671875 C 13.160156 -10.472656 12.632812 -8.800781 12.28125 -7.65625 C 11.9375 -6.507812 11.71875 -5.710938 11.625 -5.265625 C 11.53125 -4.816406 11.484375 -4.367188 11.484375 -3.921875 C 11.484375 -2.328125 12.984375 -1.53125 15.984375 -1.53125 L 20.671875 -1.53125 L 20.671875 0 L 0.953125 0 L 0.953125 -1.53125 L 4.40625 -1.53125 C 6.1875 -1.53125 7.410156 -2.007812 8.078125 -2.96875 C 8.753906 -3.925781 9.472656 -5.519531 10.234375 -7.75 Z M 26.78125 -52.328125 L 17.40625 -23.34375 L 36.828125 -23.34375 L 26.984375 -52.328125 Z M 26.78125 -52.328125 " />
                    </g>
                </g>
            </g>
            <g fill="#ffffff" fill-opacity="1">
                <g transform="translate(127.813769, 70.271597)">
                    <g>
                        <path
                            d="M 32.234375 -67.359375 C 39.765625 -67.359375 45.394531 -65.984375 49.125 -63.234375 C 52.851562 -60.492188 54.71875 -56.222656 54.71875 -50.421875 C 54.71875 -46.015625 52.898438 -42.519531 49.265625 -39.9375 C 45.628906 -37.351562 40.625 -35.648438 34.25 -34.828125 L 34.25 -34.640625 C 38.332031 -34.316406 41.535156 -33.691406 43.859375 -32.765625 C 46.191406 -31.835938 48.023438 -30.421875 49.359375 -28.515625 C 50.003906 -27.617188 50.515625 -26.691406 50.890625 -25.734375 C 51.273438 -24.773438 51.625 -23.546875 51.9375 -22.046875 C 52.257812 -20.546875 52.546875 -18.664062 52.796875 -16.40625 C 53.054688 -14.144531 53.378906 -11.257812 53.765625 -7.75 C 53.953125 -5.707031 54.410156 -4.0625 55.140625 -2.8125 C 55.878906 -1.570312 57.113281 -0.953125 58.84375 -0.953125 C 59.726562 -0.953125 60.441406 -1.046875 60.984375 -1.234375 C 61.523438 -1.429688 62.117188 -1.65625 62.765625 -1.90625 L 63.328125 -0.671875 C 62.054688 -0.222656 60.863281 0.09375 59.75 0.28125 C 58.632812 0.476562 57.375 0.578125 55.96875 0.578125 C 54.4375 0.578125 53 0.476562 51.65625 0.28125 C 50.320312 0.09375 49.128906 -0.269531 48.078125 -0.8125 C 47.023438 -1.351562 46.097656 -2.101562 45.296875 -3.0625 C 44.503906 -4.019531 43.882812 -5.296875 43.4375 -6.890625 C 42.925781 -8.484375 42.554688 -10.316406 42.328125 -12.390625 C 42.109375 -14.460938 41.882812 -16.519531 41.65625 -18.5625 C 41.4375 -20.601562 41.179688 -22.5 40.890625 -24.25 C 40.609375 -26.007812 40.179688 -27.429688 39.609375 -28.515625 C 38.910156 -29.785156 38.066406 -30.785156 37.078125 -31.515625 C 36.085938 -32.253906 35.03125 -32.796875 33.90625 -33.140625 C 32.789062 -33.492188 31.660156 -33.703125 30.515625 -33.765625 C 29.367188 -33.835938 28.347656 -33.875 27.453125 -33.875 L 21.71875 -33.875 L 21.71875 -1.53125 L 31.46875 -1.53125 L 31.46875 0 L 2.390625 0 L 2.390625 -1.53125 L 11.953125 -1.53125 L 11.953125 -65.828125 L 2.390625 -65.828125 L 2.390625 -67.359375 Z M 21.71875 -35.40625 L 26.5 -35.40625 C 32.6875 -35.40625 37.210938 -36.613281 40.078125 -39.03125 C 42.953125 -41.457031 44.390625 -45.253906 44.390625 -50.421875 C 44.390625 -53.285156 44.003906 -55.707031 43.234375 -57.6875 C 42.472656 -59.664062 41.390625 -61.257812 39.984375 -62.46875 C 38.585938 -63.6875 36.898438 -64.550781 34.921875 -65.0625 C 32.941406 -65.570312 30.738281 -65.828125 28.3125 -65.828125 L 21.71875 -65.828125 Z M 21.71875 -35.40625 " />
                    </g>
                </g>
            </g>
            <g fill="#ffffff" fill-opacity="1">
                <g transform="translate(191.61881, 70.271597)">
                    <g>
                        <path
                            d="M 28.796875 -67.359375 L 28.796875 -65.828125 L 19.796875 -65.828125 L 19.796875 -35.40625 L 54.625 -35.40625 L 54.625 -65.828125 L 45.640625 -65.828125 L 45.640625 -67.359375 L 72.8125 -67.359375 L 72.8125 -65.828125 L 64.390625 -65.828125 L 64.390625 -1.53125 L 72.8125 -1.53125 L 72.8125 0 L 45.640625 0 L 45.640625 -1.53125 L 54.625 -1.53125 L 54.625 -33.875 L 19.796875 -33.875 L 19.796875 -1.53125 L 28.796875 -1.53125 L 28.796875 0 L 1.625 0 L 1.625 -1.53125 L 10.046875 -1.53125 L 10.046875 -65.828125 L 1.625 -65.828125 L 1.625 -67.359375 Z M 28.796875 -67.359375 " />
                    </g>
                </g>
            </g>
            <g fill="#ffffff" fill-opacity="1">
                <g transform="translate(266.042072, 70.271597)">
                    <g>
                        <path
                            d="M 29.9375 -67.359375 L 29.9375 -65.828125 L 19.796875 -65.828125 L 19.796875 -15.5 C 19.796875 -13.269531 20.175781 -11.210938 20.9375 -9.328125 C 21.707031 -7.441406 22.8125 -5.796875 24.25 -4.390625 C 25.6875 -2.992188 27.425781 -1.910156 29.46875 -1.140625 C 31.507812 -0.378906 33.773438 0 36.265625 0 C 43.210938 0 48.566406 -1.703125 52.328125 -5.109375 C 56.097656 -8.523438 57.984375 -13.582031 57.984375 -20.28125 L 57.984375 -59.703125 C 57.984375 -61.929688 57.550781 -63.507812 56.6875 -64.4375 C 55.820312 -65.363281 54.335938 -65.828125 52.234375 -65.828125 L 46.78125 -65.828125 L 46.78125 -67.359375 L 68.984375 -67.359375 L 68.984375 -65.828125 L 64.671875 -65.828125 C 62.628906 -65.828125 61.257812 -65.332031 60.5625 -64.34375 C 59.863281 -63.351562 59.515625 -61.773438 59.515625 -59.609375 L 59.515625 -19.234375 C 59.515625 -12.847656 57.472656 -7.789062 53.390625 -4.0625 C 49.304688 -0.332031 43.4375 1.53125 35.78125 1.53125 C 30.613281 1.53125 26.367188 1.082031 23.046875 0.1875 C 19.734375 -0.695312 17.101562 -1.984375 15.15625 -3.671875 C 13.21875 -5.367188 11.878906 -7.394531 11.140625 -9.75 C 10.410156 -12.113281 10.046875 -14.765625 10.046875 -17.703125 L 10.046875 -65.828125 L 0.953125 -65.828125 L 0.953125 -67.359375 Z M 29.9375 -67.359375 " />
                    </g>
                </g>
            </g>
            <g fill="#ffffff" fill-opacity="1">
                <g transform="translate(335.108394, 70.271597)">
                    <g>
                        <path
                            d="M 39.890625 -63.046875 C 40.972656 -63.046875 41.675781 -63.472656 42 -64.328125 C 42.320312 -65.191406 42.546875 -65.976562 42.671875 -66.6875 L 44.203125 -66.6875 L 44.203125 -46.59375 L 42.671875 -46.59375 C 42.160156 -52.96875 40.195312 -58.019531 36.78125 -61.75 C 33.375 -65.488281 28.800781 -67.359375 23.0625 -67.359375 C 18.976562 -67.359375 15.644531 -66.097656 13.0625 -63.578125 C 10.476562 -61.054688 9.1875 -57.59375 9.1875 -53.1875 C 9.1875 -50.832031 9.503906 -48.9375 10.140625 -47.5 C 10.773438 -46.0625 11.828125 -44.878906 13.296875 -43.953125 C 14.765625 -43.035156 16.742188 -42.289062 19.234375 -41.71875 C 21.722656 -41.144531 24.785156 -40.503906 28.421875 -39.796875 C 31.921875 -39.097656 34.914062 -38.285156 37.40625 -37.359375 C 39.894531 -36.429688 41.9375 -35.21875 43.53125 -33.71875 C 45.125 -32.21875 46.269531 -30.382812 46.96875 -28.21875 C 47.675781 -26.050781 48.03125 -23.4375 48.03125 -20.375 C 48.03125 -13.613281 46.210938 -8.269531 42.578125 -4.34375 C 38.941406 -0.425781 33.867188 1.53125 27.359375 1.53125 C 25.003906 1.53125 22.882812 1.273438 21 0.765625 C 19.113281 0.253906 17.421875 -0.316406 15.921875 -0.953125 C 14.429688 -1.585938 13.125 -2.160156 12 -2.671875 C 10.882812 -3.179688 9.914062 -3.4375 9.09375 -3.4375 C 7.9375 -3.4375 7.25 -2.988281 7.03125 -2.09375 C 6.8125 -1.207031 6.703125 -0.316406 6.703125 0.578125 L 5.171875 0.578125 L 5.171875 -23.625 L 6.703125 -23.625 C 6.703125 -19.925781 7.191406 -16.609375 8.171875 -13.671875 C 9.160156 -10.742188 10.582031 -8.273438 12.4375 -6.265625 C 14.289062 -4.253906 16.488281 -2.707031 19.03125 -1.625 C 21.582031 -0.539062 24.457031 0 27.65625 0 C 29.945312 0 32.0625 -0.347656 34 -1.046875 C 35.945312 -1.753906 37.625 -2.742188 39.03125 -4.015625 C 40.4375 -5.296875 41.519531 -6.828125 42.28125 -8.609375 C 43.050781 -10.398438 43.4375 -12.378906 43.4375 -14.546875 C 43.4375 -17.796875 42.859375 -20.328125 41.703125 -22.140625 C 40.554688 -23.960938 39.054688 -25.367188 37.203125 -26.359375 C 35.359375 -27.347656 33.238281 -28.046875 30.84375 -28.453125 C 28.457031 -28.867188 25.988281 -29.300781 23.4375 -29.75 C 21.457031 -30.070312 19.625 -30.472656 17.9375 -30.953125 C 16.25 -31.429688 14.703125 -32.019531 13.296875 -32.71875 C 10.617188 -34 8.59375 -35.960938 7.21875 -38.609375 C 5.851562 -41.253906 5.171875 -45.03125 5.171875 -49.9375 C 5.171875 -52.675781 5.597656 -55.207031 6.453125 -57.53125 C 7.316406 -59.863281 8.53125 -61.875 10.09375 -63.5625 C 11.65625 -65.257812 13.535156 -66.570312 15.734375 -67.5 C 17.929688 -68.425781 20.375 -68.890625 23.0625 -68.890625 C 25.414062 -68.890625 27.484375 -68.582031 29.265625 -67.96875 C 31.054688 -67.363281 32.601562 -66.691406 33.90625 -65.953125 C 35.21875 -65.222656 36.351562 -64.554688 37.3125 -63.953125 C 38.269531 -63.347656 39.128906 -63.046875 39.890625 -63.046875 Z M 39.890625 -63.046875 " />
                    </g>
                </g>
            </g>
        </g>
    </g>
    <g transform="matrix(1, 0, 0, 1, 640, 201)">
        <g clip-path="url(#8250823dd5)">
            <g clip-path="url(#8d97c656df)">
                <path stroke-linecap="butt"
                    transform="matrix(0, 1.294105, -1.294105, 0, 3.113391, 35.093702)" fill="none"
                    stroke-linejoin="miter" d="M 0.0000370708 0.999207 L 25.470097 0.999207 "
                    stroke="#ffffff" stroke-width="2" stroke-opacity="1" stroke-miterlimit="4" />
            </g>
            <path stroke-linecap="butt"
                transform="matrix(0, 1.294105, -1.294105, 0, 11.038078, 24.055413)" fill="none"
                stroke-linejoin="miter" d="M -0.0005605 1.00138 L 44.02117 1.00138 "
                stroke="#ffffff" stroke-width="2" stroke-opacity="1" stroke-miterlimit="4" />
            <path stroke-linecap="butt"
                transform="matrix(0.00000000225864, 1.294105, -1.294105, 0.00000000225864, 18.803058, 13.01342)"
                fill="none" stroke-linejoin="miter" d="M -0.00131433 1.000881 L 62.019701 1.000881 "
                stroke="#ffffff" stroke-width="2" stroke-opacity="1" stroke-miterlimit="4" />
            <path stroke-linecap="butt"
                transform="matrix(0, 1.294105, -1.294105, 0, 49.861863, 30.451725)" fill="none"
                stroke-linejoin="miter" d="M 0.00108215 1.001044 L 35.489527 1.001044 "
                stroke="#ffffff" stroke-width="2" stroke-opacity="1" stroke-miterlimit="4" />
            <path stroke-linecap="butt"
                transform="matrix(0, 1.294105, -1.294105, 0, 57.625848, 24.055413)" fill="none"
                stroke-linejoin="miter" d="M -0.0005605 0.999777 L 44.02117 0.999777 "
                stroke="#ffffff" stroke-width="2" stroke-opacity="1" stroke-miterlimit="4" />
            <path stroke-linecap="butt"
                transform="matrix(0.00000000225864, 1.294105, -1.294105, 0.00000000225864, 65.389889, 5.249802)"
                fill="none" stroke-linejoin="miter" d="M 0.000153266 0.998553 L 68.553192 0.998553 "
                stroke="#ffffff" stroke-width="2" stroke-opacity="1" stroke-miterlimit="4" />
            <path stroke-linecap="butt"
                transform="matrix(0, 1.294105, -1.294105, 0, 34.332373, 13.01342)" fill="none"
                stroke-linejoin="miter" d="M -0.00131433 0.999386 L 62.019701 0.999386 "
                stroke="#ffffff" stroke-width="2" stroke-opacity="1" stroke-miterlimit="4" />
            <g clip-path="url(#05c7121652)">
                <path stroke-linecap="butt"
                    transform="matrix(0, 1.294105, -1.294105, 0, 26.566046, 1.836551)" fill="none"
                    stroke-linejoin="miter" d="M -0.000473723 0.998843 L 79.087112 0.998843 "
                    stroke="#ffffff" stroke-width="2" stroke-opacity="1" stroke-miterlimit="4" />
            </g>
            <path stroke-linecap="butt"
                transform="matrix(0.00000000225864, 1.294105, -1.294105, 0.00000000225864, 42.097001, 13.01342)"
                fill="none" stroke-linejoin="miter" d="M -0.00131433 0.998616 L 62.019701 0.998616 "
                stroke="#ffffff" stroke-width="2" stroke-opacity="1" stroke-miterlimit="4" />
            <path stroke-linecap="butt"
                transform="matrix(0, 1.294105, -1.294105, 0, 73.155163, 24.055413)" fill="none"
                stroke-linejoin="miter" d="M -0.0005605 1.0013 L 44.02117 1.0013 " stroke="#ffffff"
                stroke-width="2" stroke-opacity="1" stroke-miterlimit="4" />
            <path stroke-linecap="butt"
                transform="matrix(0, 1.294105, -1.294105, 0, 80.923128, 33.235268)" fill="none"
                stroke-linejoin="miter" d="M -0.000690345 1.00009 L 25.46937 1.00009 "
                stroke="#ffffff" stroke-width="2" stroke-opacity="1" stroke-miterlimit="4" />
            <path stroke-linecap="butt"
                transform="matrix(0, 1.294105, -1.294105, 0, 88.681081, 40.988183)" fill="none"
                stroke-linejoin="miter" d="M 0.0000757197 1.000199 L 15.355159 1.000199 "
                stroke="#ffffff" stroke-width="2" stroke-opacity="1" stroke-miterlimit="4" />
            <g clip-path="url(#576f89bdb8)">
                <path stroke-linecap="butt"
                    transform="matrix(0, 1.294105, -1.294105, 0, 96.444712, 24.36045)" fill="none"
                    stroke-linejoin="miter" d="M -0.000830413 0.998658 L 40.199485 0.998658 "
                    stroke="#ffffff" stroke-width="2" stroke-opacity="1" stroke-miterlimit="4" />
            </g>
        </g>
    </g>
</svg>