<svg xmlns="http://www.w3.org/2000/svg" width="300" height="82" viewBox="0 0 300 82"><rect width="100%" height="100%" fill="#DDDDDD"/><path fill="#999999" d="M62.94 46.51h6.36v2.44h-9.32V33.04h2.96zm18.5-11.11h-7.06v4.41h5.57v2.28h-5.57v4.5h7.06v2.36H71.41V33.04h10.03zm12.65 0h-7.06v4.71h5.96v2.36h-5.96v6.48h-2.97V33.04h10.03zm13.53-2.36v2.44h-4.79v13.47h-2.96V35.48h-4.8v-2.44zm10.41 0v15.91h-2.97V33.04zm18.57 0h2.23v15.91h-2.61V38.68q0-.62.07-1.33l-4.81 9.03q-.34.65-1.04.65h-.42q-.71 0-1.05-.65l-4.86-9.07.06.72q.02.35.02.65v10.27h-2.61V33.04h2.23q.2 0 .34.02.15.01.26.05.12.04.21.14.1.1.18.27l4.77 8.83q.18.35.34.73.16.37.32.77.15-.41.32-.79.16-.38.35-.73l4.69-8.81q.09-.17.19-.27t.22-.14q.11-.04.25-.05.15-.02.35-.02m9.11 9.9h5.06l-1.93-5.29q-.14-.35-.3-.83-.15-.49-.31-1.05-.14.56-.29 1.05-.16.49-.3.86zm4.04-9.9L156 48.95h-2.29q-.38 0-.63-.19-.24-.19-.36-.48l-1.19-3.25h-6.59l-1.18 3.25q-.09.25-.34.46-.26.21-.63.21h-2.31l6.26-15.91zm15.73 7.94h5.28v6.43q-1.21.89-2.58 1.3-1.37.42-2.93.42-1.95 0-3.52-.61-1.58-.6-2.7-1.68t-1.72-2.58q-.61-1.49-.61-3.26 0-1.8.59-3.29.58-1.5 1.65-2.58 1.07-1.07 2.6-1.67 1.53-.59 3.44-.59.96 0 1.81.15.84.16 1.56.43t1.31.65q.6.39 1.09.85l-.85 1.34q-.19.32-.51.39t-.7-.16l-.72-.42q-.37-.21-.81-.36-.45-.15-1-.25-.56-.1-1.28-.1-1.18 0-2.13.39-.95.4-1.62 1.14-.68.73-1.04 1.77-.36 1.03-.36 2.31 0 1.36.39 2.43.39 1.08 1.1 1.82t1.71 1.13 2.23.39q.88 0 1.58-.18.69-.19 1.35-.51V43.2h-2q-.29 0-.45-.16t-.16-.39zm18.17-5.58h-7.06v4.41h5.57v2.28h-5.57v4.5h7.06v2.36h-10.03V33.04h10.03zm10.93 11.11h6.35v2.44h-9.31V33.04h2.96zm11.44-13.47v15.91h-2.97V33.04zm14.35 0h2.61v15.91h-1.52q-.35 0-.59-.12-.23-.11-.45-.39l-8.31-10.6q.07.73.07 1.34v9.77h-2.61V33.04h1.55q.19 0 .33.02.13.02.24.07.1.05.2.14t.22.25l8.34 10.64-.06-.75q-.02-.38-.02-.7zm9.11 0v6.67h.69q.42 0 .7-.12.27-.11.47-.36l4.39-5.56q.27-.35.58-.49.3-.14.76-.14h2.55l-5.36 6.62q-.47.6-.97.85.36.14.65.37.29.24.56.62l5.52 7.45h-2.61q-.53 0-.79-.15-.25-.15-.43-.43l-4.5-5.88q-.21-.29-.48-.42-.28-.12-.8-.12h-.93v7h-2.96V33.04z"/></svg>