<svg xmlns="http://www.w3.org/2000/svg" width="300" height="82" viewBox="0 0 300 82"><rect width="100%" height="100%" fill="#DDDDDD"/><path fill="#999999" d="M63.1 40.65h1.68q.76 0 1.33-.19.56-.19.92-.52.37-.34.55-.8t.18-1.01q0-1.1-.73-1.69-.72-.59-2.21-.59H63.1zm4.98 2.24 3.62 5.34h-2.43q-.69 0-1-.54l-3.04-4.63q-.17-.26-.37-.37-.21-.11-.61-.11H63.1v5.65h-2.69V33.77h4.41q1.47 0 2.52.3 1.06.31 1.74.86.67.55.99 1.32.32.76.32 1.68 0 .73-.22 1.38-.21.65-.62 1.18-.4.53-1 .93-.59.4-1.35.63.26.15.48.35.22.21.4.49m7.89-9.12v14.46h-2.7V33.77zm10.35 7.21h4.8v5.85q-1.1.81-2.35 1.19-1.24.37-2.66.37-1.77 0-3.21-.55-1.43-.55-2.45-1.53-1.01-.98-1.56-2.34T78.34 41q0-1.63.53-2.99t1.5-2.34q.98-.98 2.37-1.52t3.12-.54q.88 0 1.64.14.77.14 1.42.38.66.25 1.2.6t.99.77l-.77 1.22q-.18.29-.47.36-.29.06-.63-.15l-.66-.38q-.33-.19-.74-.33-.4-.14-.91-.23-.5-.09-1.16-.09-1.07 0-1.94.36-.86.36-1.47 1.03t-.94 1.61-.33 2.1q0 1.24.35 2.22.36.97 1 1.64.65.68 1.56 1.04.91.35 2.03.35.8 0 1.43-.17t1.23-.46V43h-1.82q-.26 0-.41-.15-.14-.14-.14-.35zm16.89-7.21h2.7v14.46h-2.7v-6.32h-6.79v6.32h-2.7V33.77h2.7v6.22h6.79zm16.02 0v2.21h-4.36v12.25h-2.69V35.98h-4.36v-2.21zm9.46 0v14.46h-2.7V33.77zm16.88 0h2.03v14.46h-2.37v-9.34q0-.56.06-1.21l-4.37 8.21q-.31.59-.95.59h-.38q-.64 0-.95-.59l-4.42-8.24q.03.33.05.65t.02.59v9.34h-2.37V33.77h2.03q.18 0 .31.01t.23.05q.11.04.19.13.09.09.17.24l4.33 8.03q.17.32.31.66.15.34.29.7.14-.37.29-.72.15-.34.32-.66l4.27-8.01q.08-.15.17-.24t.19-.13q.11-.04.24-.05t.31-.01m8.29 9h4.6l-1.76-4.81q-.13-.32-.27-.76t-.28-.95q-.13.51-.27.95-.14.45-.27.78zm3.67-9 5.68 14.46h-2.08q-.35 0-.57-.18-.22-.17-.33-.43l-1.08-2.95h-5.99l-1.08 2.95q-.08.23-.31.42t-.57.19h-2.1l5.69-14.46zm14.3 7.21h4.8v5.85q-1.1.81-2.35 1.19-1.24.37-2.66.37-1.77 0-3.21-.55-1.43-.55-2.45-1.53-1.01-.98-1.56-2.34t-.55-2.97q0-1.63.53-2.99t1.5-2.34q.98-.98 2.37-1.52t3.12-.54q.88 0 1.64.14.77.14 1.42.38.66.25 1.2.6t.99.77l-.77 1.22q-.18.29-.47.36-.29.06-.63-.15l-.66-.38q-.33-.19-.74-.33-.4-.14-.91-.23-.5-.09-1.16-.09-1.07 0-1.94.36-.86.36-1.47 1.03t-.94 1.61-.33 2.1q0 1.24.35 2.22.36.97 1 1.64.65.68 1.56 1.04.91.35 2.03.35.8 0 1.43-.17t1.23-.46V43h-1.82q-.26 0-.41-.15-.14-.14-.14-.35zm16.52-5.07h-6.42v4.01h5.06v2.07h-5.06v4.09h6.42v2.15h-9.12V33.77h9.12zm9.93 10.1h5.78v2.22h-8.47V33.77h2.69zm10.4-12.24v14.46h-2.7V33.77zm13.05 0h2.37v14.46h-1.38q-.32 0-.54-.1-.21-.11-.41-.36l-7.55-9.64q.06.66.06 1.22v8.88h-2.37V33.77h1.41q.17 0 .29.01.13.02.22.07.1.04.19.12.09.09.2.23l7.58 9.68q-.03-.35-.05-.69t-.02-.63zm8.28 0v6.06h.63q.38 0 .63-.11.25-.1.43-.33l3.99-5.05q.25-.32.52-.45.28-.12.7-.12h2.32l-4.87 6.01q-.43.55-.89.78.33.12.59.34.27.21.51.56l5.02 6.77h-2.37q-.48 0-.72-.14-.23-.13-.39-.39l-4.09-5.34q-.19-.27-.44-.38t-.72-.11h-.85v6.36h-2.69V33.77z"/></svg>