<svg xmlns="http://www.w3.org/2000/svg" width="113" height="51" viewBox="0 0 113 51"><rect width="100%" height="100%" fill="#DDDDDD"/><path fill="#999999" d="M26.81 31.515h6.94v2.66H23.58v-17.35h3.23zm25.79-6.02q0 1.91-.63 3.54-.63 1.62-1.78 2.81t-2.77 1.86q-1.62.66-3.6.66-1.97 0-3.59-.66-1.62-.67-2.78-1.86t-1.79-2.81q-.64-1.63-.64-3.54 0-1.9.64-3.53.63-1.63 1.79-2.81 1.16-1.19 2.78-1.86 1.62-.66 3.59-.66 1.32 0 2.48.3 1.16.31 2.14.87.97.55 1.74 1.35.78.8 1.32 1.78.54.99.82 2.14t.28 2.42m-3.3 0q0-1.42-.38-2.56-.39-1.13-1.1-1.92-.7-.8-1.72-1.22-1.01-.42-2.28-.42-1.28 0-2.29.42t-1.73 1.22q-.71.79-1.1 1.92-.38 1.14-.38 2.56 0 1.43.38 2.57.39 1.13 1.1 1.92.72.78 1.73 1.2t2.29.42q1.27 0 2.28-.42 1.02-.42 1.72-1.2.71-.79 1.1-1.92.38-1.14.38-2.57m14.69-.02h5.76v7.02q-1.32.97-2.82 1.42-1.49.45-3.19.45-2.13 0-3.85-.66t-2.94-1.83q-1.22-1.18-1.88-2.81t-.66-3.57q0-1.95.64-3.58.63-1.64 1.8-2.81 1.17-1.18 2.84-1.83 1.67-.64 3.75-.64 1.05 0 1.97.16.92.17 1.7.47.79.29 1.44.71t1.19.92l-.93 1.47q-.21.35-.56.42-.35.08-.76-.17-.39-.23-.79-.46-.4-.22-.88-.39-.49-.17-1.09-.28-.61-.11-1.4-.11-1.29 0-2.32.44-1.04.43-1.77 1.23-.74.81-1.13 1.93-.4 1.13-.4 2.52 0 1.49.43 2.66.42 1.17 1.2 1.98.77.81 1.86 1.24 1.1.42 2.44.42.96 0 1.72-.2.75-.2 1.47-.55v-3.15h-2.18q-.31 0-.49-.17-.17-.17-.17-.43zm25.43.02q0 1.91-.63 3.54-.63 1.62-1.79 2.81-1.15 1.19-2.77 1.86-1.62.66-3.6.66-1.97 0-3.59-.66-1.62-.67-2.77-1.86-1.16-1.19-1.8-2.81-.63-1.63-.63-3.54 0-1.9.63-3.53.64-1.63 1.8-2.81 1.15-1.19 2.77-1.86 1.62-.66 3.59-.66 1.32 0 2.49.3 1.16.31 2.13.87.97.55 1.75 1.35.77.8 1.31 1.78.54.99.82 2.14.29 1.15.29 2.42m-3.3 0q0-1.42-.39-2.56-.38-1.13-1.09-1.92-.71-.8-1.72-1.22-1.02-.42-2.29-.42t-2.28.42q-1.02.42-1.73 1.22-.72.79-1.1 1.92-.38 1.14-.38 2.56 0 1.43.38 2.57.38 1.13 1.1 1.92.71.78 1.73 1.2 1.01.42 2.28.42t2.29-.42q1.01-.42 1.72-1.2.71-.79 1.09-1.92.39-1.14.39-2.57"/></svg>